<svg xmlns="http://www.w3.org/2000/svg" viewBox="0 0 32 32" fill="none">
  <defs>
    <linearGradient id="rg" x1="16" y1="28" x2="16" y2="4" gradientUnits="userSpaceOnUse">
      <stop offset="0%" stop-color="#2C261E"/>
      <stop offset="30%" stop-color="#8B80C4"/>
      <stop offset="60%" stop-color="#6E9BC8"/>
      <stop offset="100%" stop-color="#5BA880"/>
    </linearGradient>
    <radialGradient id="dg" cx="16" cy="5" r="4" gradientUnits="userSpaceOnUse">
      <stop offset="0%" stop-color="#5BA880" stop-opacity="0.35"/>
      <stop offset="100%" stop-color="#5BA880" stop-opacity="0"/>
    </radialGradient>
  </defs>
  <circle cx="16" cy="5" r="3.5" fill="url(#dg)"/>
  <path d="M16 27 C16 24.5,10.3 23,9.2 20.3 C8.1 17.8,14.2 17,16 15.2 C17.8 13.3,23.1 12.8,22.8 10.3 C22.4 7.8,17.4 7.1,16 5.7"
        stroke="url(#rg)" stroke-width="1.1" stroke-linecap="round" stroke-linejoin="round"/>
  <path d="M9.2 20.3 C7.4 19.8,6.3 18.5,6.8 17.1" stroke="#B5718E" stroke-width="0.7" stroke-linecap="round" opacity="0.85"/>
  <path d="M22.8 10.3 C24.2 9.6,25.3 8.5,25 7.1" stroke="#B09848" stroke-width="0.7" stroke-linecap="round" opacity="0.85"/>
  <circle cx="16" cy="27" r="1" fill="#2C261E"/>
  <circle cx="6.8" cy="17.1" r="1.2" fill="#B5718E"/>
  <circle cx="25" cy="7.1" r="1.1" fill="#B09848"/>
  <circle cx="16" cy="5" r="1.6" fill="#5BA880"/>
  <circle cx="15.5" cy="4.5" r="0.5" fill="white" opacity="0.4"/>
</svg>
